<svg width="97" height="23" viewBox="0 0 97 23" fill="none" xmlns="http://www.w3.org/2000/svg">
<path d="M32.8052 17.3435C32.7285 17.4225 32.5975 17.5212 32.4186 17.643C32.2365 17.7614 32.0032 17.8832 31.7125 18.0016C31.4218 18.1201 31.0671 18.2254 30.6486 18.3109C30.23 18.3965 29.7476 18.4393 29.2076 18.4393C28.1629 18.4393 27.2619 18.2649 26.4983 17.9227C25.7379 17.5772 25.1085 17.0967 24.6133 16.4781C24.1181 15.8595 23.7538 15.129 23.5206 14.2867C23.2874 13.4443 23.1724 12.5164 23.1724 11.5062C23.1724 10.496 23.297 9.56479 23.5494 8.70598C23.8018 7.85045 24.1788 7.11008 24.6804 6.48489C25.182 5.8597 25.8114 5.3727 26.5654 5.02062C27.3194 4.66854 28.2076 4.49414 29.2236 4.49414C29.7252 4.49414 30.1821 4.54021 30.5879 4.63234C30.9936 4.72448 31.3483 4.83635 31.6518 4.96139C31.9553 5.08643 32.2045 5.22134 32.4058 5.35954C32.6039 5.49774 32.7573 5.6162 32.8595 5.70833C32.9745 5.81363 33.0736 5.94196 33.1598 6.08674C33.2429 6.23152 33.2844 6.39276 33.2844 6.56386C33.2844 6.83039 33.1886 7.09363 32.9937 7.36016C32.7988 7.62669 32.5879 7.87019 32.3547 8.09723C32.2013 7.93929 32.0256 7.77476 31.8339 7.61024C31.639 7.44572 31.425 7.29764 31.1853 7.1726C30.9457 7.04757 30.6773 6.93898 30.3738 6.85343C30.0703 6.76787 29.7316 6.7251 29.3578 6.7251C28.6996 6.7251 28.1501 6.86001 27.7028 7.13312C27.2587 7.40623 26.9009 7.7616 26.6293 8.19924C26.3577 8.63688 26.166 9.14032 26.0478 9.703C25.9328 10.269 25.8753 10.8415 25.8753 11.4272C25.8753 12.0524 25.9328 12.648 26.0478 13.2205C26.1628 13.7931 26.3641 14.2965 26.6485 14.7342C26.9328 15.1718 27.3035 15.5239 27.7603 15.7904C28.2172 16.0569 28.7891 16.1886 29.4728 16.1886C29.8339 16.1886 30.1661 16.1425 30.4697 16.0504C30.7732 15.9582 31.0416 15.8464 31.2716 15.7114C31.5048 15.5798 31.7061 15.4383 31.8818 15.2935C32.0576 15.1488 32.2013 15.0204 32.3163 14.9151C32.393 15.0073 32.4825 15.1224 32.5879 15.2541C32.6934 15.389 32.7892 15.5272 32.8787 15.672C32.9681 15.8167 33.0448 15.9648 33.1119 16.1096C33.1758 16.2577 33.2077 16.3893 33.2077 16.5077C33.2077 16.6821 33.1758 16.8269 33.1119 16.9454C33.048 17.0638 32.9458 17.1987 32.8052 17.3435ZM42.7735 15.8167C42.7735 16.873 42.9236 17.6397 43.2208 18.1201C42.9875 18.2122 42.7703 18.2813 42.569 18.3208C42.3677 18.3603 42.1568 18.38 41.9364 18.38C41.4699 18.38 41.1153 18.2879 40.8756 18.1003C40.636 17.9128 40.4827 17.6463 40.4188 17.2975C40.1344 17.6068 39.7574 17.8667 39.2909 18.0806C38.8245 18.2945 38.2526 18.3998 37.5784 18.3998C37.227 18.3998 36.8788 18.3504 36.5273 18.2484C36.1759 18.1497 35.8596 17.9852 35.572 17.7581C35.2877 17.5311 35.0544 17.2284 34.8723 16.85C34.6902 16.4715 34.6007 16.0076 34.6007 15.4614C34.6007 14.7835 34.7605 14.2274 35.0768 13.803C35.3963 13.3752 35.7925 13.0396 36.2749 12.7928C36.7541 12.546 37.2749 12.3782 37.8308 12.2827C38.39 12.1906 38.9012 12.1314 39.3676 12.1018C39.5242 12.0886 39.6743 12.082 39.8245 12.082H40.243V11.7168C40.243 11.2035 40.1089 10.8382 39.8437 10.621C39.5785 10.4039 39.1472 10.2953 38.5497 10.2953C37.9906 10.2953 37.4954 10.3874 37.0609 10.575C36.6264 10.7625 36.2014 10.9764 35.7861 11.2166C35.604 10.9896 35.457 10.7395 35.3484 10.4664C35.2397 10.1933 35.1822 9.98927 35.1822 9.85436C35.1822 9.6668 35.2813 9.48582 35.4826 9.31472C35.6838 9.14032 35.9586 8.98567 36.3101 8.84418C36.6615 8.70268 37.0609 8.59081 37.5177 8.50196C37.9714 8.41641 38.4507 8.37034 38.9587 8.37034C39.6584 8.37034 40.2526 8.44274 40.7383 8.59081C41.2239 8.73888 41.6201 8.96592 41.9236 9.27194C42.2271 9.58125 42.4444 9.96294 42.5754 10.4236C42.7064 10.8843 42.7703 11.4239 42.7703 12.036V15.8167H42.7735ZM40.2814 13.4904H40.0098C39.9172 13.4904 39.8277 13.4969 39.7382 13.5101C39.4124 13.5364 39.0929 13.5759 38.7734 13.6318C38.4539 13.6845 38.1727 13.7799 37.9267 13.9115C37.6807 14.0464 37.4794 14.2176 37.3229 14.4314C37.1663 14.6453 37.0896 14.9184 37.0896 15.2541C37.0896 15.6292 37.1951 15.9451 37.3995 16.205C37.6072 16.465 37.9586 16.5966 38.4507 16.5966C38.6967 16.5966 38.9299 16.5637 39.1504 16.4979C39.3708 16.4321 39.5657 16.3432 39.735 16.2379C39.9044 16.1293 40.0354 16.0142 40.1344 15.8858C40.2303 15.7608 40.2814 15.6423 40.2814 15.5338V13.4904ZM47.617 9.54176C47.8247 9.28839 48.1474 9.03173 48.5883 8.77179C49.0292 8.51184 49.5851 8.38022 50.2561 8.38022C50.7353 8.38022 51.189 8.46248 51.6235 8.63029C52.0548 8.79811 52.4414 9.06793 52.7769 9.44305C53.1124 9.81816 53.3807 10.3117 53.582 10.9271C53.7833 11.5424 53.8823 12.2959 53.8823 13.1909C53.8823 14.234 53.7673 15.0928 53.5341 15.7674C53.3009 16.4419 53.0005 16.9783 52.6331 17.3699C52.2657 17.7647 51.8535 18.0411 51.3999 18.2023C50.9462 18.3636 50.4957 18.4426 50.042 18.4426C49.6682 18.4426 49.3391 18.3998 49.0611 18.3109C48.7832 18.2254 48.5468 18.1267 48.3519 18.0214C48.157 17.9161 48.01 17.8075 47.9046 17.7022C47.8023 17.5969 47.7352 17.5212 47.7097 17.4817V22.4076H45.0642V8.65991C45.1281 8.64675 45.208 8.63358 45.3007 8.62042C45.3805 8.60726 45.47 8.59739 45.5754 8.59081C45.6809 8.58423 45.8055 8.58094 45.9492 8.58094C46.3806 8.58094 46.748 8.65333 47.0483 8.8014C47.3486 8.94947 47.5403 9.19626 47.617 9.54176ZM51.1187 13.2502C51.1187 12.8487 51.0868 12.4769 51.0229 12.1281C50.959 11.7793 50.8503 11.4799 50.7034 11.2265C50.5564 10.9731 50.3551 10.7757 50.1027 10.6342C49.8503 10.4927 49.5436 10.4236 49.1826 10.4236C48.6394 10.4236 48.2624 10.5322 48.0515 10.7428C47.8375 10.9567 47.732 11.1903 47.732 11.4437V15.6917C47.8343 15.8003 48.0196 15.9253 48.2848 16.0734C48.55 16.2215 48.8567 16.2939 49.2049 16.2939C49.8631 16.2939 50.3455 16.0273 50.6554 15.491C50.9653 14.9612 51.1187 14.211 51.1187 13.2502ZM55.9271 16.6986C55.8345 16.4321 55.777 16.1524 55.7514 15.8562C55.7258 15.5634 55.7131 15.2672 55.7131 14.9744V5.67543C55.8025 5.66227 55.9016 5.6491 56.0038 5.63594C56.0933 5.62278 56.1923 5.61291 56.2945 5.60633C56.3968 5.59975 56.5022 5.59646 56.6045 5.59646C56.8121 5.59646 57.0198 5.6162 57.2275 5.65569C57.4351 5.69517 57.6236 5.77743 57.793 5.89589C57.9623 6.01764 58.0965 6.17887 58.2019 6.38618C58.3074 6.59348 58.3585 6.8633 58.3585 7.19893V8.62042H61.0838V10.6441H58.3585V14.9184C58.3585 15.8496 58.7291 16.3169 59.4671 16.3169C59.6493 16.3169 59.8218 16.2873 59.9815 16.228C60.1445 16.1688 60.2882 16.103 60.4192 16.0273C60.5502 15.9549 60.6621 15.876 60.7611 15.797C60.8569 15.718 60.9272 15.6555 60.9656 15.616C61.1605 15.9089 61.3106 16.1655 61.4129 16.3794C61.5151 16.5933 61.5694 16.7973 61.5694 16.9849C61.5694 17.1593 61.5023 17.3337 61.3649 17.5015C61.2276 17.6693 61.0359 17.8239 60.7899 17.9654C60.5438 18.1069 60.2435 18.2221 59.8953 18.3076C59.5438 18.3965 59.1636 18.4393 58.7483 18.4393C57.9431 18.4393 57.3169 18.278 56.8696 17.9588C56.4223 17.6397 56.106 17.2185 55.9271 16.6986ZM67.7868 16.4354C68.1127 16.4354 68.3971 16.3992 68.6463 16.3235C68.8923 16.2511 69.1159 16.1589 69.3108 16.0537C69.5057 15.9484 69.675 15.8299 69.8188 15.7016C69.9626 15.5732 70.0936 15.4581 70.2086 15.3495C70.3652 15.5502 70.5281 15.8069 70.6974 16.1195C70.8668 16.4353 70.9498 16.692 70.9498 16.8927C70.9498 17.1856 70.7869 17.4554 70.4642 17.6956C70.1926 17.9095 69.806 18.0938 69.3076 18.2484C68.8092 18.4031 68.2213 18.4787 67.5472 18.4787C66.937 18.4787 66.3363 18.3998 65.7484 18.2385C65.1574 18.0773 64.6334 17.7976 64.1733 17.3962C63.7132 16.9947 63.3394 16.4584 63.0551 15.7838C62.7707 15.1093 62.627 14.257 62.627 13.2271C62.627 12.3847 62.7547 11.6608 63.0072 11.0521C63.2596 10.4434 63.5982 9.93991 64.02 9.53847C64.4417 9.13703 64.9177 8.84418 65.4513 8.65662C65.9817 8.46906 66.528 8.37693 67.0871 8.37693C67.8124 8.37693 68.429 8.49538 68.937 8.72901C69.4418 8.96263 69.854 9.27852 70.1735 9.67009C70.4898 10.0649 70.7198 10.5157 70.8636 11.0225C71.0073 11.5292 71.0776 12.0656 71.0776 12.625V12.9046C71.0776 13.0132 71.0744 13.1251 71.068 13.2469C71.0617 13.3686 71.0553 13.4838 71.0489 13.5989C71.0425 13.7141 71.0329 13.803 71.0201 13.8688H65.2788C65.3299 14.6025 65.5535 15.2146 65.9433 15.7016C66.3203 16.1951 66.9402 16.4354 67.7868 16.4354ZM68.6718 12.3683C68.6718 11.7267 68.5504 11.2068 68.3108 10.8053C68.068 10.4039 67.6367 10.2032 67.0104 10.2032C66.4769 10.2032 66.0488 10.394 65.7293 10.7757C65.4098 11.1574 65.25 11.6872 65.25 12.3683H68.6718ZM75.672 9.59441C75.7487 9.47595 75.8541 9.34104 75.9819 9.19626C76.1129 9.05148 76.2694 8.91657 76.4579 8.79811C76.6465 8.67965 76.8541 8.57765 77.081 8.49867C77.3078 8.4197 77.5506 8.38022 77.8094 8.38022C77.966 8.38022 78.1289 8.39338 78.3046 8.4197C78.4804 8.44603 78.6433 8.49538 78.7903 8.56777C78.9404 8.64017 79.0586 8.73888 79.1513 8.86721C79.2408 8.99225 79.2887 9.15019 79.2887 9.33446C79.2887 9.62731 79.2184 9.95965 79.0746 10.3381C78.9308 10.7165 78.7903 11.0389 78.6465 11.3055C78.426 11.1179 78.2056 10.9764 77.9851 10.8744C77.7647 10.7757 77.5059 10.723 77.2056 10.723C76.803 10.723 76.4675 10.8448 76.1928 11.085C75.9212 11.3252 75.7838 11.6148 75.7838 11.9504V18.4393H73.1384V8.65991C73.2023 8.64675 73.2822 8.63358 73.3716 8.62042C73.4483 8.60726 73.5409 8.59739 73.6432 8.59081C73.7454 8.58423 73.87 8.58094 74.0138 8.58094C74.4291 8.58094 74.7902 8.6632 75.0937 8.82772C75.4036 8.99554 75.5953 9.24891 75.672 9.59441ZM83.1961 9.59441C83.2728 9.47595 83.3782 9.34104 83.506 9.19626C83.637 9.05148 83.7936 8.91657 83.9821 8.79811C84.1706 8.67965 84.3783 8.57765 84.6051 8.49867C84.8319 8.4197 85.0748 8.38022 85.3336 8.38022C85.4901 8.38022 85.653 8.39338 85.8288 8.4197C86.0045 8.44603 86.1674 8.49538 86.3144 8.56777C86.4646 8.64017 86.5828 8.73888 86.6754 8.86721C86.7649 8.99225 86.8128 9.15019 86.8128 9.33446C86.8128 9.62731 86.7425 9.95965 86.5988 10.3381C86.455 10.7165 86.3144 11.0389 86.1706 11.3055C85.9502 11.1179 85.7297 10.9764 85.5093 10.8744C85.2888 10.7757 85.03 10.723 84.7297 10.723C84.3271 10.723 83.9917 10.8448 83.7169 11.085C83.4453 11.3252 83.3079 11.6148 83.3079 11.9504V18.4393H80.6625V8.65991C80.7264 8.64675 80.8063 8.63358 80.8957 8.62042C80.9724 8.60726 81.0651 8.59739 81.1673 8.59081C81.2696 8.58423 81.3942 8.58094 81.5379 8.58094C81.9533 8.58094 82.3143 8.6632 82.6178 8.82772C82.9277 8.99554 83.1194 9.24891 83.1961 9.59441ZM95.8258 15.8167C95.8258 16.873 95.976 17.6397 96.2731 18.1201C96.0399 18.2122 95.8226 18.2813 95.6213 18.3208C95.42 18.3603 95.2092 18.38 94.9887 18.38C94.5223 18.38 94.1676 18.2879 93.928 18.1003C93.6884 17.9128 93.535 17.6463 93.4711 17.2975C93.1868 17.6068 92.8098 17.8667 92.3433 18.0806C91.8768 18.2945 91.3049 18.3998 90.6308 18.3998C90.2794 18.3998 89.9311 18.3504 89.5797 18.2484C89.2282 18.1497 88.9119 17.9852 88.6276 17.7581C88.3432 17.5311 88.11 17.2284 87.9279 16.85C87.7458 16.4715 87.6563 16.0076 87.6563 15.4614C87.6563 14.7835 87.816 14.2274 88.1323 13.803C88.4486 13.3752 88.848 13.0396 89.3304 12.7928C89.8097 12.546 90.3305 12.3782 90.8864 12.2827C91.4455 12.1906 91.9567 12.1314 92.4232 12.1018C92.5797 12.0886 92.7299 12.082 92.8801 12.082H93.2986V11.7168C93.2986 11.2035 93.1644 10.8382 92.8992 10.621C92.634 10.4039 92.2027 10.2953 91.6053 10.2953C91.0461 10.2953 90.5509 10.3874 90.1164 10.575C89.6819 10.7625 89.257 10.9764 88.8416 11.2166C88.6595 10.9896 88.5125 10.7395 88.4039 10.4664C88.2953 10.1933 88.2378 9.98927 88.2378 9.85436C88.2378 9.6668 88.3368 9.48582 88.5381 9.31472C88.7394 9.14032 89.0142 8.98567 89.3656 8.84418C89.717 8.70268 90.1164 8.59081 90.5733 8.50196C91.027 8.41641 91.5062 8.37034 92.0142 8.37034C92.7139 8.37034 93.3082 8.44274 93.7938 8.59081C94.2794 8.73888 94.6756 8.96592 94.9791 9.27194C95.2827 9.58125 95.4999 9.96294 95.6309 10.4236C95.7619 10.8843 95.8258 11.4239 95.8258 12.036V15.8167ZM93.3337 13.4904H93.0622C92.9695 13.4904 92.8801 13.4969 92.7906 13.5101C92.4647 13.5364 92.1452 13.5759 91.8257 13.6318C91.5062 13.6845 91.2251 13.7799 90.979 13.9115C90.733 14.0464 90.5318 14.2176 90.3752 14.4314C90.2187 14.6453 90.142 14.9184 90.142 15.2541C90.142 15.6292 90.2474 15.9451 90.4519 16.205C90.6564 16.465 91.011 16.5966 91.503 16.5966C91.749 16.5966 91.9823 16.5637 92.2027 16.4979C92.4232 16.4321 92.6181 16.3432 92.7874 16.2379C92.9567 16.1293 93.0877 16.0142 93.1868 15.8858C93.2826 15.7608 93.3337 15.6423 93.3337 15.5338V13.4904Z" fill="white"/>
<path d="M0.453125 8.61667L9.23607 8.61996H14.5749V3.1709L0.453125 8.61667Z" fill="#FFD600"/>
<path d="M14.5741 3.17131V22.4076L21.2451 0.598145L14.5741 3.17131Z" fill="#23BDFF"/>
<path d="M14.5738 8.62061H9.23502L14.5738 22.4078V8.62061Z" fill="#044D80"/>
<path d="M0.453125 8.6167L10.6035 12.1573L9.23288 8.61999L0.453125 8.6167Z" fill="#BC1F1F"/>
</svg>
