<svg width="537" height="336" viewBox="0 0 537 336" fill="none" xmlns="http://www.w3.org/2000/svg">
<g filter="url(#filter0_f_1_908)">
<path d="M220.049 66.8523L268.843 151.603L251.459 161.612L202.665 76.8608L220.049 66.8523Z" fill="url(#paint0_linear_1_908)"/>
<path d="M180.985 251.201L210.442 209.127C212.685 205.924 216.871 204.739 220.459 206.292C225.242 208.362 226.923 214.299 223.936 218.569L202.583 249.099C197.755 256 198.803 265.413 205.03 271.084L244.028 306.601L186.724 275.534C177.927 270.765 175.246 259.398 180.985 251.201Z" fill="url(#paint1_linear_1_908)"/>
<path d="M336.291 252.94L308.035 209.989C305.885 206.72 301.732 205.414 298.098 206.864C293.253 208.796 291.4 214.686 294.264 219.044L314.746 250.21C319.372 257.248 318.052 266.627 311.664 272.115L271.617 306.521L329.851 277.097C338.782 272.585 341.79 261.3 336.291 252.94Z" fill="url(#paint2_linear_1_908)"/>
<path d="M289.871 279.432C284.386 296.75 265.901 306.343 248.583 300.858C231.265 295.373 221.672 276.888 227.157 259.57C232.642 242.252 251.127 232.66 268.445 238.144C285.763 243.629 295.355 262.114 289.871 279.432Z" fill="url(#paint3_linear_1_908)"/>
<path d="M236.888 268.091C237.028 267.648 237.753 267.684 237.873 268.134C238.972 272.254 242.669 282.075 253.458 285.492C264.247 288.908 272.924 283.007 276.195 280.271C276.552 279.972 277.165 280.359 277.025 280.803C277.01 280.849 276.992 280.887 276.963 280.925C276.3 281.788 267.342 292.994 252.564 288.314C237.787 283.633 236.913 269.314 236.868 268.226C236.866 268.178 236.873 268.137 236.888 268.091Z" fill="url(#paint4_linear_1_908)"/>
<path d="M255.792 260.697C254.859 263.641 252.419 265.494 250.341 264.836C248.262 264.178 247.334 261.258 248.266 258.314C249.198 255.37 251.639 253.516 253.717 254.175C255.795 254.833 256.724 257.753 255.792 260.697Z" fill="url(#paint5_linear_1_908)"/>
<path d="M273.345 266.261C272.413 269.205 269.972 271.058 267.894 270.4C265.816 269.742 264.887 266.822 265.819 263.878C266.752 260.934 269.192 259.081 271.27 259.739C273.349 260.397 274.277 263.317 273.345 266.261Z" fill="url(#paint6_linear_1_908)"/>
<path d="M259.189 155.276L279.545 176.154H238.833L259.189 155.276Z" fill="url(#paint7_linear_1_908)"/>
<path d="M270.146 156.321C270.146 162.086 265.472 166.76 259.707 166.76C253.942 166.76 249.268 162.086 249.268 156.321C249.268 150.555 253.942 145.882 259.707 145.882C265.472 145.882 270.146 150.555 270.146 156.321Z" fill="url(#paint8_linear_1_908)"/>
<path d="M221.418 72.5346C221.418 78.0768 216.925 82.5697 211.383 82.5697C205.841 82.5697 201.348 78.0768 201.348 72.5346C201.348 66.9924 205.841 62.4995 211.383 62.4995C216.925 62.4995 221.418 66.9924 221.418 72.5346Z" fill="url(#paint9_linear_1_908)"/>
<path d="M264.926 156.32C264.926 159.202 262.59 161.539 259.707 161.539C256.824 161.539 254.487 159.202 254.487 156.32C254.487 153.437 256.824 151.1 259.707 151.1C262.59 151.1 264.926 153.437 264.926 156.32Z" fill="url(#paint10_linear_1_908)"/>
<path d="M216.401 72.5346C216.401 75.3057 214.154 77.5522 211.383 77.5522C208.612 77.5522 206.366 75.3057 206.366 72.5346C206.366 69.7635 208.612 67.5171 211.383 67.5171C214.154 67.5171 216.401 69.7635 216.401 72.5346Z" fill="url(#paint11_linear_1_908)"/>
<path d="M238.833 176.154H279.545V190.77H238.833V176.154Z" fill="url(#paint12_linear_1_908)"/>
<path d="M210.649 198.076H307.732V206.427H210.649V198.076Z" fill="url(#paint13_linear_1_908)"/>
<path d="M210.649 196.51L238.834 190.769H279.546L307.732 196.51L307.732 198.076H210.649V196.51Z" fill="url(#paint14_linear_1_908)"/>
<path d="M210.649 204.339H223.176V212.69C223.176 216.149 220.371 218.954 216.912 218.954C213.453 218.954 210.649 216.149 210.649 212.69V204.339Z" fill="url(#paint15_linear_1_908)"/>
<path d="M253.452 204.339H265.979V218.954H253.452V204.339Z" fill="url(#paint16_linear_1_908)"/>
<path d="M295.197 204.339H307.724V212.69C307.724 216.149 304.92 218.954 301.46 218.954C298.001 218.954 295.197 216.149 295.197 212.69V204.339Z" fill="url(#paint17_linear_1_908)"/>
<path d="M255.539 208.516H263.89V258.623L260.759 308.73H258.671L255.539 258.623V208.516Z" fill="url(#paint18_linear_1_908)"/>
</g>
<g filter="url(#filter1_f_1_908)">
<path d="M25.8825 333L3.00018 305H513.549L534 332L25.8825 333Z" fill="#001D74" fill-opacity="0.05"/>
</g>
<g filter="url(#filter2_f_1_908)">
<path d="M25.8825 257L3.00018 229H513.549L534 256L25.8825 257Z" fill="#001D74" fill-opacity="0.05"/>
</g>
<g filter="url(#filter3_f_1_908)">
<path d="M25.8825 179L3.00018 151H513.549L534 178L25.8825 179Z" fill="#001D74" fill-opacity="0.05"/>
</g>
<circle cx="336.087" cy="282.992" r="26.2904" transform="rotate(62.1476 336.087 282.992)" fill="#FFD600"/>
<path d="M324.558 270.054C324.887 269.88 325.279 270.307 325.095 270.631C323.41 273.593 320.005 281.259 324.232 289.257C328.458 297.255 336.709 298.762 340.106 299.039C340.477 299.069 340.609 299.634 340.28 299.807C340.246 299.825 340.214 299.837 340.176 299.842C339.315 299.962 327.928 301.317 322.14 290.362C316.351 279.408 323.887 270.764 324.471 270.12C324.497 270.091 324.524 270.072 324.558 270.054Z" fill="black"/>
<ellipse cx="337.995" cy="273.661" rx="3.15485" ry="4.46937" transform="rotate(62.1476 337.995 273.661)" fill="black"/>
<ellipse cx="344.872" cy="286.678" rx="3.15485" ry="4.46937" transform="rotate(62.1476 344.872 286.678)" fill="black"/>
<circle cx="420.332" cy="282.991" r="26.2904" transform="rotate(-171.409 420.332 282.991)" fill="#FFD600"/>
<path d="M437.585 281.403C437.53 281.77 436.953 281.832 436.802 281.492C435.42 278.377 431.275 271.084 422.331 269.733C413.387 268.382 407.273 274.124 405.033 276.693C404.788 276.973 404.255 276.744 404.311 276.376C404.317 276.338 404.326 276.306 404.344 276.272C404.76 275.508 410.434 265.543 422.685 267.394C434.936 269.244 437.413 280.441 437.584 281.294C437.592 281.331 437.591 281.364 437.585 281.403Z" fill="black"/>
<ellipse cx="426.698" cy="290.071" rx="3.15485" ry="4.46937" transform="rotate(-171.409 426.698 290.071)" fill="black"/>
<ellipse cx="412.145" cy="287.871" rx="3.15485" ry="4.46937" transform="rotate(-171.409 412.145 287.871)" fill="black"/>
<circle cx="477.769" cy="282.992" r="26.2904" transform="rotate(15 477.769 282.992)" fill="#FFD600"/>
<path d="M460.445 282.645C460.541 282.286 461.121 282.289 461.233 282.644C462.259 285.894 465.563 293.603 474.301 295.944C483.038 298.286 489.755 293.262 492.268 290.96C492.543 290.708 493.046 290.996 492.95 291.355C492.94 291.392 492.927 291.423 492.905 291.454C492.407 292.167 485.656 301.437 473.689 298.23C461.721 295.023 460.509 283.62 460.434 282.754C460.431 282.715 460.435 282.682 460.445 282.645Z" fill="black"/>
<ellipse cx="472.236" cy="275.245" rx="3.15485" ry="4.46937" transform="rotate(15 472.236 275.245)" fill="black"/>
<ellipse cx="486.449" cy="279.056" rx="3.15485" ry="4.46937" transform="rotate(15 486.449 279.056)" fill="black"/>
<rect x="512" y="302" width="10" height="509" transform="rotate(90 512 302)" fill="white"/>
<circle cx="352.606" cy="210.363" r="26.2904" transform="rotate(46.2787 352.606 210.363)" fill="#2AEFCC"/>
<path d="M337.98 201.07C338.249 200.813 338.742 201.117 338.654 201.478C337.843 204.788 336.665 213.093 342.917 219.63C349.169 226.168 357.517 225.361 360.861 224.699C361.226 224.626 361.507 225.133 361.238 225.391C361.21 225.417 361.183 225.437 361.148 225.452C360.352 225.803 349.77 230.22 341.207 221.266C332.643 212.311 337.528 201.937 337.914 201.157C337.931 201.123 337.952 201.097 337.98 201.07Z" fill="black"/>
<ellipse cx="351.894" cy="200.866" rx="3.15485" ry="4.46937" transform="rotate(46.2787 351.894 200.866)" fill="black"/>
<ellipse cx="362.074" cy="211.506" rx="3.15485" ry="4.46937" transform="rotate(46.2787 362.074 211.506)" fill="black"/>
<circle cx="416.322" cy="210.363" r="26.2904" transform="rotate(135 416.322 210.363)" fill="#2AEFCC"/>
<path d="M425.29 195.534C425.553 195.797 425.26 196.298 424.897 196.217C421.569 195.48 413.241 194.488 406.844 200.884C400.448 207.28 401.441 215.609 402.178 218.937C402.258 219.3 401.757 219.593 401.494 219.329C401.467 219.302 401.447 219.276 401.431 219.241C401.062 218.453 396.41 207.972 405.171 199.211C413.932 190.45 424.413 195.102 425.201 195.47C425.236 195.487 425.263 195.507 425.29 195.534Z" fill="black"/>
<ellipse cx="425.803" cy="209.437" rx="3.15485" ry="4.46937" transform="rotate(135 425.803 209.437)" fill="black"/>
<ellipse cx="415.393" cy="219.848" rx="3.15485" ry="4.46937" transform="rotate(135 415.393 219.848)" fill="black"/>
<circle cx="473.841" cy="210.363" r="26.2904" transform="rotate(135 473.841 210.363)" fill="#2AEFCC"/>
<path d="M482.808 195.534C483.071 195.797 482.778 196.298 482.415 196.217C479.087 195.48 470.759 194.488 464.362 200.884C457.966 207.28 458.959 215.609 459.696 218.937C459.776 219.3 459.275 219.593 459.012 219.329C458.985 219.302 458.965 219.276 458.949 219.241C458.58 218.453 453.928 207.972 462.689 199.211C471.45 190.45 481.931 195.102 482.719 195.47C482.754 195.487 482.78 195.507 482.808 195.534Z" fill="black"/>
<ellipse cx="483.321" cy="209.437" rx="3.15485" ry="4.46937" transform="rotate(135 483.321 209.437)" fill="black"/>
<ellipse cx="472.913" cy="219.848" rx="3.15485" ry="4.46937" transform="rotate(135 472.913 219.848)" fill="black"/>
<rect x="512" y="229" width="11" height="509" transform="rotate(90 512 229)" fill="white"/>
<circle cx="305.826" cy="130.477" r="26.2904" transform="rotate(46.2787 305.826 130.477)" fill="#2AD4EF"/>
<path d="M291.202 121.185C291.471 120.928 291.965 121.231 291.877 121.593C291.066 124.903 289.888 133.208 296.139 139.745C302.391 146.282 310.74 145.476 314.083 144.813C314.448 144.741 314.73 145.248 314.461 145.505C314.433 145.532 314.406 145.551 314.371 145.567C313.575 145.918 302.993 150.335 294.429 141.38C285.866 132.426 290.751 122.052 291.137 121.272C291.154 121.237 291.175 121.211 291.202 121.185Z" fill="black"/>
<ellipse cx="305.115" cy="120.979" rx="3.15485" ry="4.46937" transform="rotate(46.2787 305.115 120.979)" fill="black"/>
<ellipse cx="315.291" cy="131.621" rx="3.15485" ry="4.46937" transform="rotate(46.2787 315.291 131.621)" fill="black"/>
<circle cx="360.476" cy="130.477" r="26.2904" transform="rotate(135 360.476 130.477)" fill="#2AD4EF"/>
<path d="M369.44 115.648C369.703 115.911 369.411 116.412 369.047 116.332C365.72 115.595 357.391 114.602 350.995 120.998C344.598 127.395 345.591 135.723 346.328 139.051C346.408 139.414 345.908 139.707 345.645 139.444C345.617 139.417 345.597 139.39 345.581 139.355C345.213 138.567 340.56 128.086 349.322 119.325C358.083 110.564 368.563 115.216 369.352 115.585C369.386 115.601 369.413 115.621 369.44 115.648Z" fill="black"/>
<ellipse cx="369.961" cy="129.551" rx="3.15485" ry="4.46937" transform="rotate(135 369.961 129.551)" fill="black"/>
<ellipse cx="359.547" cy="139.963" rx="3.15485" ry="4.46937" transform="rotate(135 359.547 139.963)" fill="black"/>
<circle cx="418.607" cy="130.476" r="26.2904" transform="rotate(15 418.607 130.476)" fill="#2AD4EF"/>
<path d="M401.284 130.13C401.38 129.77 401.96 129.773 402.072 130.128C403.098 133.378 406.403 141.088 415.14 143.429C423.877 145.77 430.594 140.746 433.107 138.444C433.382 138.193 433.885 138.48 433.789 138.839C433.779 138.877 433.766 138.907 433.744 138.939C433.246 139.652 426.495 148.921 414.528 145.714C402.56 142.507 401.348 131.105 401.273 130.238C401.27 130.2 401.274 130.167 401.284 130.13Z" fill="black"/>
<ellipse cx="413.07" cy="122.73" rx="3.15485" ry="4.46937" transform="rotate(15 413.07 122.73)" fill="black"/>
<ellipse cx="427.287" cy="126.54" rx="3.15485" ry="4.46937" transform="rotate(15 427.287 126.54)" fill="black"/>
<circle cx="472.911" cy="130.477" r="26.2904" transform="rotate(-85.0144 472.911 130.477)" fill="#2AD4EF"/>
<path d="M475.581 147.596C475.21 147.564 475.112 146.992 475.442 146.82C478.465 145.245 485.482 140.65 486.268 131.638C487.054 122.627 480.939 116.886 478.235 114.811C477.939 114.585 478.135 114.039 478.505 114.071C478.544 114.075 478.576 114.082 478.611 114.098C479.4 114.465 489.702 119.501 488.625 131.844C487.548 144.187 476.53 147.363 475.69 147.588C475.652 147.598 475.619 147.599 475.581 147.596Z" fill="black"/>
<ellipse cx="466.244" cy="137.275" rx="3.15485" ry="4.46937" transform="rotate(-85.0144 466.244 137.275)" fill="black"/>
<ellipse cx="467.525" cy="122.612" rx="3.15485" ry="4.46937" transform="rotate(-85.0144 467.525 122.612)" fill="black"/>
<rect x="512" y="151" width="11" height="509" transform="rotate(90 512 151)" fill="white"/>
<path d="M16.2073 115.688V128.536H23.5769V131.166H13.2726V115.688H16.2073ZM35.2562 125.753V126.405H26.8649C26.9663 127.362 27.2634 128.086 27.7562 128.579C28.2634 129.057 28.9373 129.296 29.7779 129.296C31.0243 129.296 31.8794 128.76 32.3431 127.688H34.9735C34.6837 128.833 34.075 129.746 33.1475 130.427C32.2199 131.094 31.0895 131.427 29.7562 131.427C28.0895 131.427 26.7417 130.891 25.7127 129.818C24.6837 128.746 24.1693 127.325 24.1693 125.557C24.1693 123.789 24.6765 122.369 25.691 121.297C26.72 120.224 28.0605 119.688 29.7127 119.688C31.4083 119.688 32.7562 120.246 33.7562 121.362C34.7562 122.478 35.2562 123.941 35.2562 125.753ZM29.691 121.818C28.0823 121.818 27.1475 122.71 26.8866 124.492H32.517C32.4011 123.666 32.0967 123.014 31.604 122.536C31.1112 122.057 30.4736 121.818 29.691 121.818ZM47.0056 131.166H44.2665C44.136 130.934 44.0346 130.478 43.9621 129.796C43.2085 130.883 42.0056 131.427 40.3534 131.427C39.1216 131.427 38.1361 131.13 37.3969 130.536C36.6723 129.941 36.31 129.115 36.31 128.057C36.31 126.014 37.7448 124.847 40.6143 124.557L42.3099 124.405C42.8752 124.333 43.281 124.202 43.5273 124.014C43.7737 123.811 43.8969 123.514 43.8969 123.123C43.8969 122.644 43.7375 122.297 43.4186 122.079C43.1143 121.847 42.5926 121.731 41.8534 121.731C41.0563 121.731 40.4839 121.869 40.136 122.144C39.7882 122.405 39.5853 122.862 39.5274 123.514H36.8317C36.9911 120.963 38.6723 119.688 41.8752 119.688C44.9911 119.688 46.5491 120.811 46.5491 123.057V129.036C46.5491 130.021 46.7012 130.731 47.0056 131.166ZM41.0056 129.47C41.8607 129.47 42.5563 129.238 43.0926 128.775C43.6288 128.296 43.8969 127.615 43.8969 126.731V125.71C43.636 125.941 43.2085 126.094 42.6143 126.166L41.136 126.34C40.4114 126.427 39.8897 126.601 39.5708 126.862C39.2665 127.108 39.1143 127.47 39.1143 127.949C39.1143 128.427 39.2737 128.804 39.5926 129.079C39.9259 129.34 40.3969 129.47 41.0056 129.47ZM56.5312 121.405V115.688H59.2703V131.166H56.6181V129.601C55.792 130.818 54.6109 131.427 53.0747 131.427C51.5239 131.427 50.2993 130.891 49.4008 129.818C48.4877 128.746 48.0312 127.325 48.0312 125.557C48.0312 123.76 48.4877 122.333 49.4008 121.275C50.2848 120.217 51.5095 119.688 53.0747 119.688C54.5819 119.688 55.7341 120.26 56.5312 121.405ZM50.8355 125.644C50.8355 126.804 51.0892 127.681 51.5964 128.275C52.1037 128.869 52.8066 129.166 53.7051 129.166C54.6036 129.166 55.3138 128.854 55.8355 128.231C56.3428 127.608 56.5964 126.717 56.5964 125.557C56.5964 124.398 56.3428 123.507 55.8355 122.883C55.3283 122.26 54.6181 121.949 53.7051 121.949C52.821 121.949 52.1181 122.275 51.5964 122.927C51.0892 123.579 50.8355 124.485 50.8355 125.644ZM65.8942 131.47C62.6189 131.47 60.9087 130.181 60.7638 127.601H63.4377C63.5102 128.296 63.7348 128.789 64.1116 129.079C64.5029 129.369 65.1116 129.514 65.9377 129.514C67.416 129.514 68.1551 129.065 68.1551 128.166C68.1551 127.76 67.9957 127.449 67.6768 127.231C67.358 127.014 66.7855 126.833 65.9594 126.688L64.6768 126.47C62.2276 126.065 61.0029 124.934 61.0029 123.079C61.0029 122.021 61.4087 121.195 62.2203 120.601C63.0319 119.992 64.1768 119.688 65.6551 119.688C68.858 119.688 70.5101 120.956 70.6116 123.492H68.0246C67.9957 122.825 67.7855 122.354 67.3942 122.079C67.0029 121.789 66.4232 121.644 65.6551 121.644C64.3508 121.644 63.6986 122.079 63.6986 122.949C63.6986 123.325 63.8435 123.623 64.1334 123.84C64.4232 124.043 64.9015 124.202 65.5681 124.318L66.9812 124.536C68.3435 124.782 69.329 125.173 69.9377 125.71C70.5609 126.246 70.8725 126.992 70.8725 127.949C70.8725 129.079 70.4377 129.949 69.5681 130.557C68.6986 131.166 67.4739 131.47 65.8942 131.47Z" fill="#8090A7"/>
<path d="M20.1204 209.412C17.8885 209.412 16.0842 208.68 14.7074 207.216C13.3161 205.752 12.6204 203.789 12.6204 201.325C12.6204 198.847 13.3088 196.876 14.6856 195.412C16.0479 193.963 17.8595 193.238 20.1204 193.238C21.932 193.238 23.4754 193.723 24.7508 194.694C26.0261 195.665 26.8232 197.071 27.1421 198.912H24.1638C23.903 197.897 23.4175 197.129 22.7073 196.608C22.0117 196.071 21.1493 195.803 20.1204 195.803C18.7436 195.803 17.6566 196.296 16.8595 197.281C16.0769 198.252 15.6856 199.6 15.6856 201.325C15.6856 203.064 16.0769 204.419 16.8595 205.39C17.6421 206.361 18.7291 206.847 20.1204 206.847C21.1928 206.847 22.1131 206.528 22.8812 205.89C23.6493 205.252 24.1131 204.368 24.2725 203.238H27.2073C27.0189 205.209 26.2508 206.731 24.903 207.803C23.5696 208.876 21.9754 209.412 20.1204 209.412ZM36.1143 204.129V197.847H38.8534V209.064H36.2013V207.434C35.3462 208.694 34.1723 209.325 32.6796 209.325C31.4767 209.325 30.5202 208.977 29.81 208.281C29.1144 207.571 28.7665 206.571 28.7665 205.281V197.847H31.5057V204.825C31.5057 206.245 32.2086 206.955 33.6143 206.955C34.31 206.955 34.8969 206.709 35.3752 206.216C35.868 205.709 36.1143 205.013 36.1143 204.129ZM45.4927 209.368C42.2173 209.368 40.5072 208.078 40.3623 205.499H43.0362C43.1086 206.194 43.3333 206.687 43.7101 206.977C44.1014 207.267 44.7101 207.412 45.5362 207.412C47.0144 207.412 47.7535 206.963 47.7535 206.064C47.7535 205.658 47.5941 205.347 47.2753 205.129C46.9564 204.912 46.384 204.731 45.5579 204.586L44.2753 204.368C41.826 203.963 40.6014 202.832 40.6014 200.977C40.6014 199.919 41.0072 199.093 41.8188 198.499C42.6304 197.89 43.7753 197.586 45.2535 197.586C48.4564 197.586 50.1086 198.854 50.21 201.39H47.6231C47.5941 200.723 47.384 200.252 46.9927 199.977C46.6014 199.687 46.0217 199.542 45.2535 199.542C43.9492 199.542 43.297 199.977 43.297 200.847C43.297 201.223 43.442 201.521 43.7318 201.738C44.0217 201.941 44.4999 202.1 45.1666 202.216L46.5796 202.434C47.9419 202.68 48.9274 203.071 49.5361 203.607C50.1593 204.144 50.4709 204.89 50.4709 205.847C50.4709 206.977 50.0361 207.847 49.1666 208.455C48.297 209.064 47.0724 209.368 45.4927 209.368ZM57.6059 197.847V199.934H55.3885V205.999C55.3885 206.361 55.4827 206.615 55.6711 206.76C55.874 206.905 56.2073 206.977 56.6711 206.977H57.6059V209.064C57.0117 209.122 56.5334 209.151 56.1711 209.151C54.9537 209.151 54.0624 208.926 53.4972 208.477C52.9465 208.013 52.6711 207.281 52.6711 206.281V199.934H50.932V197.847H52.6711V194.586H55.3885V197.847H57.6059ZM69.9103 203.455C69.9103 205.223 69.3886 206.644 68.3451 207.716C67.3017 208.789 65.9249 209.325 64.2147 209.325C62.5046 209.325 61.1278 208.789 60.0843 207.716C59.0263 206.658 58.4974 205.238 58.4974 203.455C58.4974 201.673 59.0263 200.252 60.0843 199.194C61.1278 198.122 62.5046 197.586 64.2147 197.586C65.9249 197.586 67.3017 198.115 68.3451 199.173C69.3886 200.231 69.9103 201.658 69.9103 203.455ZM62.0626 206.129C62.5843 206.752 63.3017 207.064 64.2147 207.064C65.1278 207.064 65.8379 206.752 66.3451 206.129C66.8669 205.492 67.1277 204.6 67.1277 203.455C67.1277 202.31 66.8669 201.426 66.3451 200.803C65.8379 200.165 65.1278 199.847 64.2147 199.847C63.3017 199.847 62.5843 200.158 62.0626 200.781C61.5553 201.405 61.3017 202.296 61.3017 203.455C61.3017 204.615 61.5553 205.506 62.0626 206.129ZM84.4332 197.586C85.6651 197.586 86.6216 197.948 87.3027 198.673C87.9984 199.397 88.3462 200.39 88.3462 201.651V209.064H85.6071V202.086C85.6071 200.665 84.9622 199.955 83.6723 199.955C82.9767 199.955 82.4115 200.209 81.9767 200.716C81.5564 201.209 81.3462 201.934 81.3462 202.89V209.064H78.6289V202.086C78.6289 200.665 77.9767 199.955 76.6724 199.955C75.9912 199.955 75.4332 200.209 74.9984 200.716C74.5782 201.209 74.368 201.934 74.368 202.89V209.064H71.6289V197.847H74.2811V199.455C75.0492 198.209 76.1144 197.586 77.4767 197.586C79.1868 197.586 80.3462 198.281 80.9549 199.673C81.7955 198.281 82.9549 197.586 84.4332 197.586ZM101.153 203.651V204.303H92.7613C92.8627 205.26 93.1598 205.984 93.6526 206.477C94.1598 206.955 94.8337 207.194 95.6743 207.194C96.9207 207.194 97.7757 206.658 98.2395 205.586H100.87C100.58 206.731 99.9714 207.644 99.0438 208.325C98.1163 208.992 96.9859 209.325 95.6525 209.325C93.9859 209.325 92.6381 208.789 91.6091 207.716C90.5801 206.644 90.0656 205.223 90.0656 203.455C90.0656 201.687 90.5729 200.267 91.5873 199.194C92.6163 198.122 93.9569 197.586 95.6091 197.586C97.3047 197.586 98.6525 198.144 99.6525 199.26C100.653 200.376 101.153 201.839 101.153 203.651ZM95.5873 199.716C93.9786 199.716 93.0439 200.607 92.783 202.39H98.4134C98.2975 201.564 97.9931 200.912 97.5004 200.434C97.0076 199.955 96.3699 199.716 95.5873 199.716ZM108.921 197.673C109.168 197.673 109.392 197.687 109.595 197.716V200.238H108.899C107.856 200.238 107.052 200.506 106.486 201.042C105.936 201.564 105.66 202.339 105.66 203.368V209.064H102.921V197.847H105.573V199.847C106.197 198.397 107.312 197.673 108.921 197.673ZM115.253 209.368C111.977 209.368 110.267 208.078 110.122 205.499H112.796C112.869 206.194 113.093 206.687 113.47 206.977C113.862 207.267 114.47 207.412 115.296 207.412C116.775 207.412 117.514 206.963 117.514 206.064C117.514 205.658 117.354 205.347 117.035 205.129C116.717 204.912 116.144 204.731 115.318 204.586L114.035 204.368C111.586 203.963 110.362 202.832 110.362 200.977C110.362 199.919 110.767 199.093 111.579 198.499C112.39 197.89 113.535 197.586 115.014 197.586C118.217 197.586 119.869 198.854 119.97 201.39H117.383C117.354 200.723 117.144 200.252 116.753 199.977C116.361 199.687 115.782 199.542 115.014 199.542C113.709 199.542 113.057 199.977 113.057 200.847C113.057 201.223 113.202 201.521 113.492 201.738C113.782 201.941 114.26 202.1 114.927 202.216L116.34 202.434C117.702 202.68 118.688 203.071 119.296 203.607C119.919 204.144 120.231 204.89 120.231 205.847C120.231 206.977 119.796 207.847 118.927 208.455C118.057 209.064 116.833 209.368 115.253 209.368Z" fill="#8090A7"/>
<path d="M21.0117 274.955L23.7508 266.955H26.7942L21.2508 282.433H17.816L12.1422 266.955H15.2726L18.0769 274.955C18.7291 276.926 19.2218 278.535 19.5552 279.781C19.932 278.346 20.4175 276.737 21.0117 274.955ZM30.9831 282.433H28.0483V266.955H30.9831V282.433ZM33.5255 266.955H40.3298C42.0545 266.955 43.395 267.411 44.3515 268.324C45.3226 269.223 45.8081 270.448 45.8081 271.998C45.8081 273.535 45.3226 274.759 44.3515 275.672C43.395 276.571 42.0545 277.02 40.3298 277.02H36.4603V282.433H33.5255V266.955ZM36.4603 274.498H40.1994C41.0545 274.498 41.7066 274.288 42.1559 273.868C42.6197 273.433 42.8516 272.81 42.8516 271.998C42.8516 271.187 42.6197 270.564 42.1559 270.129C41.7066 269.694 41.0545 269.477 40.1994 269.477H36.4603V274.498ZM51.7129 282.737C48.4376 282.737 46.7274 281.448 46.5825 278.868H49.2564C49.3289 279.564 49.5535 280.056 49.9303 280.346C50.3216 280.636 50.9303 280.781 51.7564 280.781C53.2346 280.781 53.9738 280.332 53.9738 279.433C53.9738 279.027 53.8144 278.716 53.4955 278.498C53.1767 278.281 52.6042 278.1 51.7781 277.955L50.4955 277.737C48.0463 277.332 46.8216 276.201 46.8216 274.346C46.8216 273.288 47.2274 272.462 48.039 271.868C48.8506 271.259 49.9955 270.955 51.4738 270.955C54.6767 270.955 56.3288 272.223 56.4303 274.759H53.8433C53.8144 274.093 53.6042 273.622 53.2129 273.346C52.8216 273.056 52.2419 272.911 51.4738 272.911C50.1695 272.911 49.5173 273.346 49.5173 274.216C49.5173 274.593 49.6622 274.89 49.9521 275.107C50.2419 275.31 50.7202 275.469 51.3868 275.585L52.7999 275.803C54.1622 276.049 55.1477 276.44 55.7564 276.977C56.3796 277.513 56.6912 278.259 56.6912 279.216C56.6912 280.346 56.2564 281.216 55.3868 281.824C54.5173 282.433 53.2926 282.737 51.7129 282.737Z" fill="#8090A7"/>
<path opacity="0.3" d="M219.181 237.318C193.367 232.789 163.474 233.695 117.731 251.811C71.9888 269.926 19 301.176 19 301.176" stroke="url(#paint19_linear_1_908)" stroke-width="64.3112"/>
<rect x="174.539" y="4.77783" width="107.344" height="22.0179" transform="rotate(60.0694 174.539 4.77783)" fill="#B6CCDD"/>
<path d="M130.609 208.631L163.994 160.946C166.456 157.43 171.051 156.13 174.989 157.834C180.239 160.107 182.085 166.623 178.806 171.311L154.543 206C149.716 212.902 150.764 222.314 156.99 227.985L200.86 267.939L136.347 232.964C127.551 228.195 124.87 216.828 130.609 208.631Z" fill="#7B9EB8"/>
<path d="M303.141 210.571L271.119 161.893C268.758 158.305 264.2 156.872 260.21 158.463C254.893 160.584 252.858 167.048 256.002 171.833L279.274 207.244C283.9 214.282 282.58 223.66 276.192 229.149L231.144 267.851L296.701 234.727C305.632 230.215 308.64 218.93 303.141 210.571Z" fill="#7B9EB8"/>
<circle cx="218.89" cy="237.106" r="32.8342" transform="rotate(17.5735 218.89 237.106)" fill="#FFD600"/>
<path d="M197.301 235.699C197.441 235.256 198.164 235.292 198.284 235.741C199.382 239.854 203.072 249.657 213.842 253.068C224.612 256.479 233.274 250.588 236.539 247.856C236.895 247.558 237.507 247.945 237.367 248.388C237.353 248.434 237.335 248.471 237.306 248.509C236.644 249.371 227.702 260.557 212.95 255.885C198.198 251.213 197.326 236.919 197.281 235.833C197.279 235.785 197.286 235.744 197.301 235.699Z" fill="black"/>
<ellipse cx="212.417" cy="227.128" rx="3.94011" ry="5.58182" transform="rotate(17.5735 212.417 227.128)" fill="black"/>
<ellipse cx="229.938" cy="232.682" rx="3.94011" ry="5.58182" transform="rotate(17.5735 229.938 232.682)" fill="black"/>
<path d="M217.501 101.836L239.845 124.753H195.157L217.501 101.836Z" fill="#7B9EB8"/>
<circle cx="218.072" cy="102.983" r="11.4585" fill="#7B9EB8"/>
<circle cx="165.028" cy="11.0151" r="11.0151" fill="#7DA3C0"/>
<circle cx="218.07" cy="102.982" r="5.72923" fill="#355C79"/>
<circle cx="165.027" cy="11.0158" r="5.50753" fill="#355C79"/>
<rect x="195.157" y="124.755" width="44.688" height="16.0418" fill="#355C79"/>
<rect x="164.22" y="148.816" width="106.564" height="9.16677" fill="#355C79"/>
<path d="M164.22 147.098L195.158 140.796H239.846L270.784 147.098V148.817H164.22V147.098Z" fill="#7B9EB8"/>
<path d="M164.22 155.691H177.971V164.858C177.971 168.655 174.892 171.733 171.095 171.733C167.298 171.733 164.22 168.655 164.22 164.858V155.691Z" fill="#355C79"/>
<rect x="211.205" y="155.691" width="13.7502" height="16.0418" fill="#355C79"/>
<path d="M257.025 155.691H270.775V164.858C270.775 168.655 267.697 171.733 263.9 171.733C260.103 171.733 257.025 168.655 257.025 164.858V155.691Z" fill="#355C79"/>
<path d="M213.495 160.275H222.662V215.276L219.224 270.277H216.932L213.495 215.276V160.275Z" fill="#7B9EB8"/>
<defs>
<filter id="filter0_f_1_908" x="174.33" y="58.8763" width="168.344" height="253.477" filterUnits="userSpaceOnUse" color-interpolation-filters="sRGB">
<feFlood flood-opacity="0" result="BackgroundImageFix"/>
<feBlend mode="normal" in="SourceGraphic" in2="BackgroundImageFix" result="shape"/>
<feGaussianBlur stdDeviation="1.81158" result="effect1_foregroundBlur_1_908"/>
</filter>
<filter id="filter1_f_1_908" x="0.184148" y="302.184" width="536.632" height="33.6321" filterUnits="userSpaceOnUse" color-interpolation-filters="sRGB">
<feFlood flood-opacity="0" result="BackgroundImageFix"/>
<feBlend mode="normal" in="SourceGraphic" in2="BackgroundImageFix" result="shape"/>
<feGaussianBlur stdDeviation="1.40802" result="effect1_foregroundBlur_1_908"/>
</filter>
<filter id="filter2_f_1_908" x="0.184148" y="226.184" width="536.632" height="33.6321" filterUnits="userSpaceOnUse" color-interpolation-filters="sRGB">
<feFlood flood-opacity="0" result="BackgroundImageFix"/>
<feBlend mode="normal" in="SourceGraphic" in2="BackgroundImageFix" result="shape"/>
<feGaussianBlur stdDeviation="1.40802" result="effect1_foregroundBlur_1_908"/>
</filter>
<filter id="filter3_f_1_908" x="0.184148" y="148.184" width="536.632" height="33.6321" filterUnits="userSpaceOnUse" color-interpolation-filters="sRGB">
<feFlood flood-opacity="0" result="BackgroundImageFix"/>
<feBlend mode="normal" in="SourceGraphic" in2="BackgroundImageFix" result="shape"/>
<feGaussianBlur stdDeviation="1.40802" result="effect1_foregroundBlur_1_908"/>
</filter>
<linearGradient id="paint0_linear_1_908" x1="258.502" y1="62.4995" x2="258.502" y2="308.73" gradientUnits="userSpaceOnUse">
<stop stop-color="#E9EDF3" stop-opacity="0"/>
<stop offset="1" stop-color="#E9EDF3"/>
</linearGradient>
<linearGradient id="paint1_linear_1_908" x1="258.502" y1="62.4995" x2="258.502" y2="308.73" gradientUnits="userSpaceOnUse">
<stop stop-color="#E9EDF3" stop-opacity="0"/>
<stop offset="1" stop-color="#E9EDF3"/>
</linearGradient>
<linearGradient id="paint2_linear_1_908" x1="258.502" y1="62.4995" x2="258.502" y2="308.73" gradientUnits="userSpaceOnUse">
<stop stop-color="#E9EDF3" stop-opacity="0"/>
<stop offset="1" stop-color="#E9EDF3"/>
</linearGradient>
<linearGradient id="paint3_linear_1_908" x1="258.502" y1="62.4995" x2="258.502" y2="308.73" gradientUnits="userSpaceOnUse">
<stop stop-color="#E9EDF3" stop-opacity="0"/>
<stop offset="1" stop-color="#E9EDF3"/>
</linearGradient>
<linearGradient id="paint4_linear_1_908" x1="258.502" y1="62.4995" x2="258.502" y2="308.73" gradientUnits="userSpaceOnUse">
<stop stop-color="#E9EDF3" stop-opacity="0"/>
<stop offset="1" stop-color="#E9EDF3"/>
</linearGradient>
<linearGradient id="paint5_linear_1_908" x1="258.502" y1="62.4995" x2="258.502" y2="308.73" gradientUnits="userSpaceOnUse">
<stop stop-color="#E9EDF3" stop-opacity="0"/>
<stop offset="1" stop-color="#E9EDF3"/>
</linearGradient>
<linearGradient id="paint6_linear_1_908" x1="258.502" y1="62.4995" x2="258.502" y2="308.73" gradientUnits="userSpaceOnUse">
<stop stop-color="#E9EDF3" stop-opacity="0"/>
<stop offset="1" stop-color="#E9EDF3"/>
</linearGradient>
<linearGradient id="paint7_linear_1_908" x1="258.502" y1="62.4995" x2="258.502" y2="308.73" gradientUnits="userSpaceOnUse">
<stop stop-color="#E9EDF3" stop-opacity="0"/>
<stop offset="1" stop-color="#E9EDF3"/>
</linearGradient>
<linearGradient id="paint8_linear_1_908" x1="258.502" y1="62.4995" x2="258.502" y2="308.73" gradientUnits="userSpaceOnUse">
<stop stop-color="#E9EDF3" stop-opacity="0"/>
<stop offset="1" stop-color="#E9EDF3"/>
</linearGradient>
<linearGradient id="paint9_linear_1_908" x1="258.502" y1="62.4995" x2="258.502" y2="308.73" gradientUnits="userSpaceOnUse">
<stop stop-color="#E9EDF3" stop-opacity="0"/>
<stop offset="1" stop-color="#E9EDF3"/>
</linearGradient>
<linearGradient id="paint10_linear_1_908" x1="258.502" y1="62.4995" x2="258.502" y2="308.73" gradientUnits="userSpaceOnUse">
<stop stop-color="#E9EDF3" stop-opacity="0"/>
<stop offset="1" stop-color="#E9EDF3"/>
</linearGradient>
<linearGradient id="paint11_linear_1_908" x1="258.502" y1="62.4995" x2="258.502" y2="308.73" gradientUnits="userSpaceOnUse">
<stop stop-color="#E9EDF3" stop-opacity="0"/>
<stop offset="1" stop-color="#E9EDF3"/>
</linearGradient>
<linearGradient id="paint12_linear_1_908" x1="258.502" y1="62.4995" x2="258.502" y2="308.73" gradientUnits="userSpaceOnUse">
<stop stop-color="#E9EDF3" stop-opacity="0"/>
<stop offset="1" stop-color="#E9EDF3"/>
</linearGradient>
<linearGradient id="paint13_linear_1_908" x1="258.502" y1="62.4995" x2="258.502" y2="308.73" gradientUnits="userSpaceOnUse">
<stop stop-color="#E9EDF3" stop-opacity="0"/>
<stop offset="1" stop-color="#E9EDF3"/>
</linearGradient>
<linearGradient id="paint14_linear_1_908" x1="258.502" y1="62.4995" x2="258.502" y2="308.73" gradientUnits="userSpaceOnUse">
<stop stop-color="#E9EDF3" stop-opacity="0"/>
<stop offset="1" stop-color="#E9EDF3"/>
</linearGradient>
<linearGradient id="paint15_linear_1_908" x1="258.502" y1="62.4995" x2="258.502" y2="308.73" gradientUnits="userSpaceOnUse">
<stop stop-color="#E9EDF3" stop-opacity="0"/>
<stop offset="1" stop-color="#E9EDF3"/>
</linearGradient>
<linearGradient id="paint16_linear_1_908" x1="258.502" y1="62.4995" x2="258.502" y2="308.73" gradientUnits="userSpaceOnUse">
<stop stop-color="#E9EDF3" stop-opacity="0"/>
<stop offset="1" stop-color="#E9EDF3"/>
</linearGradient>
<linearGradient id="paint17_linear_1_908" x1="258.502" y1="62.4995" x2="258.502" y2="308.73" gradientUnits="userSpaceOnUse">
<stop stop-color="#E9EDF3" stop-opacity="0"/>
<stop offset="1" stop-color="#E9EDF3"/>
</linearGradient>
<linearGradient id="paint18_linear_1_908" x1="258.502" y1="62.4995" x2="258.502" y2="308.73" gradientUnits="userSpaceOnUse">
<stop stop-color="#E9EDF3" stop-opacity="0"/>
<stop offset="1" stop-color="#E9EDF3"/>
</linearGradient>
<linearGradient id="paint19_linear_1_908" x1="206.5" y1="251.81" x2="56.1383" y2="286.683" gradientUnits="userSpaceOnUse">
<stop stop-color="#FFD600"/>
<stop offset="1" stop-color="#FFD600" stop-opacity="0"/>
</linearGradient>
</defs>
</svg>
