<svg width="572" height="371" viewBox="0 0 572 371" fill="none" xmlns="http://www.w3.org/2000/svg">
  <g filter="url(#filter0_d_0_1)">
    <path d="M8 9.03518C8 6.80661 9.80661 5 12.0352 5H557.965C560.193 5 562 6.80661 562 9.03518V353.965C562 356.193 560.193 358 557.965 358H12.0352C9.8066 358 8 356.193 8 353.965V9.03518Z" fill="white"/>
    <path d="M12.0352 5.5H557.965C559.917 5.5 561.5 7.08275 561.5 9.03518V353.965C561.5 355.917 559.917 357.5 557.965 357.5H12.0352C10.0827 357.5 8.5 355.917 8.5 353.965V9.03518C8.5 7.08275 10.0828 5.5 12.0352 5.5Z" stroke="#91A9BC"/>
  </g>
  <path d="M69.2991 221.906H70.5318V223.647H69.2991V226H67.1398V223.647H62.6795L62.5823 222.287L67.1174 215.122H69.2991V221.906ZM64.7341 221.906H67.1398V218.065L66.9979 218.312L64.7341 221.906ZM79.0193 221.502C79.0193 223.006 78.708 224.157 78.0854 224.954C77.4628 225.751 76.5513 226.149 75.3509 226.149C74.1654 226.149 73.2589 225.758 72.6313 224.976C72.0037 224.194 71.6824 223.074 71.6675 221.614V219.612C71.6675 218.093 71.9813 216.94 72.6089 216.153C73.2415 215.366 74.1505 214.972 75.3359 214.972C76.5214 214.972 77.4279 215.363 78.0555 216.145C78.6831 216.922 79.0044 218.041 79.0193 219.5V221.502ZM76.8601 219.306C76.8601 218.404 76.7356 217.749 76.4865 217.341C76.2424 216.927 75.8589 216.721 75.3359 216.721C74.8279 216.721 74.4518 216.917 74.2077 217.311C73.9687 217.699 73.8417 218.309 73.8267 219.141V221.786C73.8267 222.673 73.9463 223.333 74.1853 223.766C74.4294 224.194 74.8179 224.409 75.3509 224.409C75.8788 224.409 76.2599 224.202 76.494 223.788C76.7281 223.375 76.8501 222.742 76.8601 221.891V219.306Z" fill="#142948"/>
  <path opacity="0.2" d="M64.099 252.546L64.6519 247.122H70.2255V248.399H65.8249L65.4962 251.365C66.0291 251.052 66.6343 250.895 67.3117 250.895C68.3029 250.895 69.0899 251.223 69.6726 251.881C70.2554 252.533 70.5468 253.418 70.5468 254.533C70.5468 255.654 70.243 256.538 69.6353 257.186C69.0326 257.828 68.1883 258.149 67.1025 258.149C66.1412 258.149 65.3567 257.883 64.749 257.35C64.1413 256.817 63.7952 256.08 63.7105 255.138H65.018C65.1027 255.761 65.3243 256.232 65.6829 256.551C66.0416 256.864 66.5147 257.021 67.1025 257.021C67.745 257.021 68.2481 256.802 68.6117 256.364C68.9803 255.925 69.1646 255.32 69.1646 254.548C69.1646 253.821 68.9654 253.238 68.5669 252.8C68.1734 252.357 67.6479 252.135 66.9904 252.135C66.3877 252.135 65.9145 252.267 65.5709 252.531L65.2048 252.83L64.099 252.546ZM78.8773 253.36C78.8773 254.979 78.6009 256.182 78.048 256.969C77.4951 257.756 76.631 258.149 75.4555 258.149C74.2949 258.149 73.4357 257.766 72.8778 256.999C72.32 256.227 72.0311 255.076 72.0112 253.547V251.702C72.0112 250.103 72.2876 248.915 72.8405 248.138C73.3934 247.361 74.26 246.972 75.4405 246.972C76.611 246.972 77.4727 247.348 78.0256 248.1C78.5785 248.848 78.8624 250.003 78.8773 251.567V253.36ZM77.4951 251.47C77.4951 250.3 77.3308 249.448 77.002 248.915C76.6733 248.377 76.1528 248.108 75.4405 248.108C74.7332 248.108 74.2177 248.374 73.894 248.907C73.5702 249.44 73.4033 250.26 73.3934 251.365V253.577C73.3934 254.752 73.5627 255.622 73.9014 256.184C74.2451 256.742 74.7631 257.021 75.4555 257.021C76.1378 257.021 76.6434 256.757 76.9722 256.229C77.3059 255.701 77.4802 254.87 77.4951 253.734V251.47Z" fill="#142948"/>
  <path opacity="0.2" d="M68.0065 130H66.6169V120.788L63.83 121.811V120.556L67.7899 119.069H68.0065V130ZM78.8773 125.36C78.8773 126.979 78.6009 128.182 78.048 128.969C77.4951 129.756 76.631 130.149 75.4555 130.149C74.2949 130.149 73.4357 129.766 72.8778 128.999C72.32 128.227 72.0311 127.076 72.0112 125.547V123.702C72.0112 122.103 72.2876 120.915 72.8405 120.138C73.3934 119.361 74.26 118.972 75.4405 118.972C76.611 118.972 77.4727 119.348 78.0256 120.1C78.5785 120.848 78.8624 122.003 78.8773 123.567V125.36ZM77.4951 123.47C77.4951 122.3 77.3308 121.448 77.002 120.915C76.6733 120.377 76.1528 120.108 75.4405 120.108C74.7332 120.108 74.2177 120.374 73.894 120.907C73.5702 121.44 73.4033 122.26 73.3934 123.365V125.577C73.3934 126.752 73.5627 127.622 73.9014 128.184C74.2451 128.742 74.7631 129.021 75.4555 129.021C76.1378 129.021 76.6434 128.757 76.9722 128.229C77.3059 127.701 77.4802 126.87 77.4951 125.734V123.47Z" fill="#142948"/>
  <path opacity="0.2" d="M70.487 311.899L65.9818 322H64.5323L69.0226 312.257H63.1352V311.122H70.487V311.899ZM78.8773 317.36C78.8773 318.979 78.6009 320.182 78.048 320.969C77.4951 321.756 76.631 322.149 75.4555 322.149C74.2949 322.149 73.4357 321.766 72.8778 320.999C72.32 320.227 72.0311 319.076 72.0112 317.547V315.702C72.0112 314.103 72.2876 312.915 72.8405 312.138C73.3934 311.361 74.26 310.972 75.4405 310.972C76.611 310.972 77.4727 311.348 78.0256 312.1C78.5785 312.848 78.8624 314.003 78.8773 315.567V317.36ZM77.4951 315.47C77.4951 314.3 77.3308 313.448 77.002 312.915C76.6733 312.377 76.1528 312.108 75.4405 312.108C74.7332 312.108 74.2177 312.374 73.894 312.907C73.5702 313.44 73.4033 314.26 73.3934 315.365V317.577C73.3934 318.752 73.5627 319.622 73.9014 320.184C74.2451 320.742 74.7631 321.021 75.4555 321.021C76.1378 321.021 76.6434 320.757 76.9722 320.229C77.3059 319.701 77.4802 318.87 77.4951 317.734V315.47Z" fill="#142948"/>
  <path opacity="0.2" d="M65.4737 187.888H66.5123C67.1648 187.878 67.6778 187.707 68.0514 187.373C68.4249 187.039 68.6117 186.588 68.6117 186.021C68.6117 184.745 67.9766 184.108 66.7065 184.108C66.1088 184.108 65.6306 184.28 65.272 184.623C64.9184 184.962 64.7415 185.413 64.7415 185.976H63.3593C63.3593 185.114 63.6731 184.399 64.3007 183.831C64.9333 183.259 65.7352 182.972 66.7065 182.972C67.7326 182.972 68.537 183.244 69.1198 183.787C69.7025 184.33 69.9939 185.084 69.9939 186.05C69.9939 186.524 69.8395 186.982 69.5307 187.425C69.2268 187.869 68.8109 188.2 68.283 188.419C68.8807 188.608 69.3414 188.922 69.6652 189.36C69.9939 189.799 70.1583 190.334 70.1583 190.967C70.1583 191.943 69.8395 192.717 69.2019 193.29C68.5644 193.863 67.7351 194.149 66.714 194.149C65.6929 194.149 64.8611 193.873 64.2186 193.32C63.581 192.767 63.2622 192.038 63.2622 191.131H64.6519C64.6519 191.704 64.8387 192.162 65.2122 192.506C65.5858 192.849 66.0864 193.021 66.714 193.021C67.3814 193.021 67.892 192.847 68.2456 192.498C68.5993 192.15 68.7761 191.649 68.7761 190.997C68.7761 190.364 68.5818 189.878 68.1933 189.54C67.8048 189.201 67.2444 189.027 66.5123 189.017H65.4737V187.888ZM78.8773 189.36C78.8773 190.979 78.6009 192.182 78.048 192.969C77.4951 193.756 76.631 194.149 75.4555 194.149C74.2949 194.149 73.4357 193.766 72.8778 192.999C72.32 192.227 72.0311 191.076 72.0112 189.547V187.702C72.0112 186.103 72.2876 184.915 72.8405 184.138C73.3934 183.361 74.26 182.972 75.4405 182.972C76.611 182.972 77.4727 183.348 78.0256 184.1C78.5785 184.848 78.8624 186.003 78.8773 187.567V189.36ZM77.4951 187.47C77.4951 186.3 77.3308 185.448 77.002 184.915C76.6733 184.377 76.1528 184.108 75.4405 184.108C74.7332 184.108 74.2177 184.374 73.894 184.907C73.5702 185.44 73.4033 186.26 73.3934 187.365V189.577C73.3934 190.752 73.5627 191.622 73.9014 192.184C74.2451 192.742 74.7631 193.021 75.4555 193.021C76.1378 193.021 76.6434 192.757 76.9722 192.229C77.3059 191.701 77.4802 190.87 77.4951 189.734V187.47Z" fill="#142948"/>
  <path d="M76.9423 98H74.783V89.6769L72.2054 90.4763V88.7206L76.7107 87.1068H76.9423V98Z" fill="#142948"/>
  <path d="M68.7686 279.01V280.788H68.5594C67.5831 280.803 66.7962 281.057 66.1985 281.55C65.6057 282.043 65.2496 282.728 65.1301 283.605C65.7078 283.017 66.4375 282.723 67.3192 282.723C68.2655 282.723 69.0176 283.062 69.5755 283.739C70.1334 284.416 70.4123 285.308 70.4123 286.414C70.4123 287.121 70.2579 287.761 69.9491 288.334C69.6452 288.907 69.2119 289.352 68.6491 289.671C68.0912 289.99 67.4586 290.149 66.7513 290.149C65.6057 290.149 64.6793 289.751 63.972 288.954C63.2697 288.157 62.9185 287.094 62.9185 285.764V284.987C62.9185 283.806 63.1402 282.765 63.5835 281.864C64.0318 280.957 64.6718 280.257 65.5036 279.764C66.3404 279.266 67.3092 279.015 68.41 279.01H68.7686ZM66.6617 284.456C66.313 284.456 65.9967 284.548 65.7128 284.733C65.4289 284.912 65.2197 285.151 65.0852 285.45V286.107C65.0852 286.83 65.2272 287.395 65.5111 287.803C65.795 288.207 66.1935 288.409 66.7065 288.409C67.1697 288.409 67.5433 288.227 67.8272 287.863C68.1161 287.495 68.2606 287.019 68.2606 286.436C68.2606 285.843 68.1161 285.365 67.8272 285.002C67.5383 284.638 67.1498 284.456 66.6617 284.456ZM79.0193 285.502C79.0193 287.006 78.708 288.157 78.0854 288.954C77.4628 289.751 76.5513 290.149 75.3509 290.149C74.1654 290.149 73.2589 289.758 72.6313 288.976C72.0037 288.194 71.6824 287.074 71.6675 285.614V283.612C71.6675 282.093 71.9813 280.94 72.6089 280.153C73.2415 279.366 74.1505 278.972 75.3359 278.972C76.5214 278.972 77.4279 279.363 78.0555 280.145C78.6831 280.922 79.0044 282.041 79.0193 283.5V285.502ZM76.8601 283.306C76.8601 282.404 76.7356 281.749 76.4865 281.341C76.2424 280.927 75.8589 280.721 75.3359 280.721C74.8279 280.721 74.4518 280.917 74.2077 281.311C73.9687 281.699 73.8417 282.309 73.8267 283.141V285.786C73.8267 286.673 73.9463 287.333 74.1853 287.766C74.4294 288.194 74.8179 288.409 75.3509 288.409C75.8788 288.409 76.2599 288.202 76.494 287.788C76.7281 287.375 76.8501 286.742 76.8601 285.891V283.306Z" fill="#142948"/>
  <path d="M70.3675 162H62.9111V160.521L66.4301 156.77C66.9132 156.242 67.2694 155.781 67.4985 155.388C67.7326 154.994 67.8496 154.621 67.8496 154.267C67.8496 153.784 67.7276 153.405 67.4835 153.132C67.2395 152.853 66.8908 152.713 66.4375 152.713C65.9494 152.713 65.5634 152.882 65.2795 153.221C65.0006 153.555 64.8611 153.996 64.8611 154.544H62.6944C62.6944 153.881 62.8513 153.276 63.1651 152.728C63.4839 152.18 63.9321 151.752 64.5099 151.443C65.0877 151.129 65.7427 150.972 66.4749 150.972C67.5956 150.972 68.4648 151.241 69.0824 151.779C69.705 152.317 70.0163 153.077 70.0163 154.058C70.0163 154.596 69.8769 155.144 69.5979 155.702C69.319 156.26 68.8408 156.91 68.1634 157.652L65.6904 160.259H70.3675V162ZM79.0193 157.502C79.0193 159.006 78.708 160.157 78.0854 160.954C77.4628 161.751 76.5513 162.149 75.3509 162.149C74.1654 162.149 73.2589 161.758 72.6313 160.976C72.0037 160.194 71.6824 159.074 71.6675 157.614V155.612C71.6675 154.093 71.9813 152.94 72.6089 152.153C73.2415 151.366 74.1505 150.972 75.3359 150.972C76.5214 150.972 77.4279 151.363 78.0555 152.145C78.6831 152.922 79.0044 154.041 79.0193 155.5V157.502ZM76.8601 155.306C76.8601 154.404 76.7356 153.749 76.4865 153.341C76.2424 152.927 75.8589 152.721 75.3359 152.721C74.8279 152.721 74.4518 152.917 74.2077 153.311C73.9687 153.699 73.8417 154.309 73.8267 155.141V157.786C73.8267 158.673 73.9463 159.333 74.1853 159.766C74.4294 160.194 74.8179 160.409 75.3509 160.409C75.8788 160.409 76.2599 160.202 76.494 159.788C76.7281 159.375 76.8501 158.742 76.8601 157.891V155.306Z" fill="#142948"/>
  <path opacity="0.5" fill-rule="evenodd" clip-rule="evenodd" d="M201.684 316.225L201.684 95H200.684L200.684 316.225L147 316.225L147 96.6479L146 96.6479L146 316.225H93L92.9999 96.6479L91.9999 96.6479L92 316.225H91V317.225H92L92 318.252H93L93 317.225H146V318.252H147V317.225L255.043 317.225V317.458H256.043V317.225H309.387V317.458H310.387V317.225H363.734V317.458H364.734V317.225H418.09V317.458H419.09V317.225L527 317.225V316.604H527.785L527.785 95H526.785L526.785 316.225H473.434L473.434 95H472.434L472.434 316.225H419.09L419.09 95.8545L418.09 95.8545L418.09 316.225H364.734L364.734 95.8545L363.734 95.8545L363.734 316.225H310.387L310.387 95.8545L309.387 95.8545L309.387 316.225H256.043L256.043 95.8545L255.043 95.8545L255.043 316.225H201.684Z" fill="#CDCDCD"/>
  <path d="M243.096 341.224C241.743 341.224 240.637 340.753 239.778 339.81C238.919 338.867 238.49 337.603 238.49 336.016C238.49 334.429 238.919 333.165 239.778 332.222C240.637 331.279 241.743 330.808 243.096 330.808C244.169 330.808 245.084 331.102 245.84 331.69C246.596 332.269 247.095 333.118 247.338 334.238H246.148C245.728 332.67 244.711 331.886 243.096 331.886C242.079 331.886 241.262 332.25 240.646 332.978C240.03 333.715 239.722 334.728 239.722 336.016C239.722 337.304 240.03 338.312 240.646 339.04C241.262 339.777 242.079 340.146 243.096 340.146C243.861 340.146 244.543 339.908 245.14 339.432C245.728 338.975 246.087 338.289 246.218 337.374H247.394C247.263 338.615 246.792 339.563 245.98 340.216C245.159 340.888 244.197 341.224 243.096 341.224ZM257.79 341H256.544L255.382 338.102H250.846L249.698 341H248.466L252.442 331.032H253.758L257.79 341ZM251.308 336.926L251.266 337.038H254.962L254.906 336.912C254.673 336.343 254.066 334.807 253.086 332.306C252.423 334.079 251.831 335.619 251.308 336.926ZM265.8 336.534L268.026 331.032H269.566V341H268.418V337.808C268.418 335.708 268.432 334.014 268.46 332.726C268.236 333.342 267.942 334.098 267.578 334.994L265.114 341H264.106L261.628 334.994C261.264 334.098 260.97 333.342 260.746 332.726C260.774 334.014 260.788 335.708 260.788 337.808V341H259.64V331.032H261.18L263.49 336.702C263.836 337.551 264.214 338.508 264.624 339.572C265.194 338.06 265.586 337.047 265.8 336.534ZM272.385 331.032H276.529C277.583 331.032 278.395 331.307 278.965 331.858C279.543 332.409 279.833 333.155 279.833 334.098C279.833 335.041 279.543 335.787 278.965 336.338C278.395 336.889 277.583 337.164 276.529 337.164H273.561V341H272.385V331.032ZM273.561 336.1H276.529C277.219 336.1 277.737 335.932 278.083 335.596C278.437 335.251 278.615 334.751 278.615 334.098C278.615 333.445 278.437 332.95 278.083 332.614C277.737 332.269 277.219 332.096 276.529 332.096H273.561V336.1ZM289.159 341H287.913L286.751 338.102H282.215L281.067 341H279.835L283.811 331.032H285.127L289.159 341ZM282.677 336.926L282.635 337.038H286.331L286.275 336.912C286.042 336.343 285.435 334.807 284.455 332.306C283.792 334.079 283.2 335.619 282.677 336.926ZM292.186 341H291.01V331.032H292.186V341ZM299.54 336.94V335.876H303.782V341H302.816L302.564 339.656C301.826 340.701 300.739 341.224 299.302 341.224C297.874 341.224 296.735 340.743 295.886 339.782C295.018 338.83 294.584 337.575 294.584 336.016C294.584 334.467 295.013 333.207 295.872 332.236C296.721 331.284 297.869 330.808 299.316 330.808C300.501 330.808 301.481 331.125 302.256 331.76C303.03 332.395 303.502 333.239 303.67 334.294H302.452C302.33 333.557 301.976 332.969 301.388 332.53C300.818 332.101 300.128 331.886 299.316 331.886C298.252 331.886 297.402 332.259 296.768 333.006C296.133 333.753 295.816 334.756 295.816 336.016C295.816 337.276 296.133 338.279 296.768 339.026C297.402 339.773 298.252 340.146 299.316 340.146C300.258 340.146 301.061 339.843 301.724 339.236C302.386 338.629 302.718 337.864 302.718 336.94H299.54ZM313.225 334.392V331.032H314.387V341H312.959L309.655 335.862C308.703 334.35 308.012 333.225 307.583 332.488C307.611 333.795 307.625 335.512 307.625 337.64V341H306.463V331.032H307.891L311.195 336.17C312.147 337.682 312.837 338.807 313.267 339.544C313.239 338.237 313.225 336.52 313.225 334.392ZM326.743 335.82C327.891 336.259 328.465 337.052 328.465 338.2C328.465 339.068 328.18 339.754 327.611 340.258C327.051 340.753 326.257 341 325.231 341H320.877V331.032H325.021C325.982 331.032 326.729 331.275 327.261 331.76C327.793 332.236 328.059 332.861 328.059 333.636C328.059 334.635 327.62 335.363 326.743 335.82ZM324.937 332.096H322.053V335.386H324.937C325.581 335.386 326.071 335.237 326.407 334.938C326.743 334.639 326.911 334.219 326.911 333.678C326.911 333.183 326.738 332.796 326.393 332.516C326.057 332.236 325.571 332.096 324.937 332.096ZM322.053 339.936H325.175C325.865 339.936 326.388 339.787 326.743 339.488C327.107 339.189 327.289 338.76 327.289 338.2C327.289 337.024 326.579 336.436 325.161 336.436H322.053V339.936ZM338.354 337.304C338.354 338.545 338.013 339.507 337.332 340.188C336.651 340.869 335.685 341.21 334.434 341.21C333.183 341.21 332.217 340.869 331.536 340.188C330.855 339.507 330.514 338.545 330.514 337.304V331.032H331.69V337.304C331.69 339.199 332.605 340.146 334.434 340.146C336.263 340.146 337.178 339.199 337.178 337.304V331.032H338.354V337.304ZM341.033 331.032H344.393C345.905 331.032 347.1 331.471 347.977 332.348C348.845 333.225 349.279 334.448 349.279 336.016C349.279 337.565 348.845 338.783 347.977 339.67C347.09 340.557 345.896 341 344.393 341H341.033V331.032ZM342.209 339.936H344.393C345.569 339.936 346.47 339.591 347.095 338.9C347.73 338.209 348.047 337.248 348.047 336.016C348.047 334.784 347.73 333.823 347.095 333.132C346.47 332.441 345.569 332.096 344.393 332.096H342.209V339.936ZM356.221 336.94V335.876H360.463V341H359.497L359.245 339.656C358.508 340.701 357.421 341.224 355.983 341.224C354.555 341.224 353.417 340.743 352.567 339.782C351.699 338.83 351.265 337.575 351.265 336.016C351.265 334.467 351.695 333.207 352.553 332.236C353.403 331.284 354.551 330.808 355.997 330.808C357.183 330.808 358.163 331.125 358.937 331.76C359.712 332.395 360.183 333.239 360.351 334.294H359.133C359.012 333.557 358.657 332.969 358.069 332.53C357.5 332.101 356.809 331.886 355.997 331.886C354.933 331.886 354.084 332.259 353.449 333.006C352.815 333.753 352.497 334.756 352.497 336.016C352.497 337.276 352.815 338.279 353.449 339.026C354.084 339.773 354.933 340.146 355.997 340.146C356.94 340.146 357.743 339.843 358.405 339.236C359.068 338.629 359.399 337.864 359.399 336.94H356.221ZM370.074 331.032V332.096H364.32V335.274H369.514V336.338H364.32V339.936H370.018V341H363.144V331.032H370.074ZM371.635 331.032H379.629V332.096H376.241V341H375.023V332.096H371.635V331.032Z" fill="#91A9BC"/>
  <path d="M32.032 317.09L32.032 312.946C32.032 311.891 32.3073 311.079 32.858 310.51C33.4087 309.931 34.1553 309.642 35.098 309.642C36.0407 309.642 36.7873 309.931 37.338 310.51C37.8887 311.079 38.164 311.891 38.164 312.946L38.164 315.914L42 315.914L42 317.09L32.032 317.09ZM37.1 315.914L37.1 312.946C37.1 312.255 36.932 311.737 36.596 311.392C36.2507 311.037 35.7513 310.86 35.098 310.86C34.4447 310.86 33.95 311.037 33.614 311.392C33.2687 311.737 33.096 312.255 33.096 312.946L33.096 315.914L37.1 315.914ZM39.116 300.004L40.726 299.906C41.286 299.86 41.7107 299.738 42 299.542L42 300.76C41.7013 300.966 41.258 301.073 40.67 301.082L39.606 301.124C38.934 301.152 38.458 301.302 38.178 301.572C37.8887 301.843 37.744 302.286 37.744 302.902L37.744 306.15L42 306.15L42 307.326L32.032 307.326L32.032 303.112C32.032 302.086 32.27 301.269 32.746 300.662C33.222 300.046 33.8893 299.738 34.748 299.738C35.3547 299.738 35.868 299.888 36.288 300.186C36.6987 300.476 36.988 300.872 37.156 301.376C37.4173 300.536 38.0707 300.079 39.116 300.004ZM36.68 306.15L36.68 302.972C36.68 302.347 36.5213 301.857 36.204 301.502C35.8773 301.138 35.4153 300.956 34.818 300.956C34.2487 300.956 33.8193 301.148 33.53 301.53C33.2407 301.904 33.096 302.431 33.096 303.112L33.096 306.15L36.68 306.15ZM40.782 289.45C41.7433 290.327 42.224 291.484 42.224 292.922C42.224 294.359 41.7433 295.512 40.782 296.38C39.8393 297.257 38.584 297.696 37.016 297.696C35.4573 297.696 34.1973 297.257 33.236 296.38C32.284 295.512 31.808 294.359 31.808 292.922C31.808 291.484 32.284 290.327 33.236 289.45C34.2067 288.582 35.4667 288.148 37.016 288.148C38.5747 288.148 39.83 288.582 40.782 289.45ZM40.026 295.498C40.7727 294.854 41.146 293.995 41.146 292.922C41.146 291.848 40.7727 290.99 40.026 290.346C39.2887 289.702 38.2853 289.38 37.016 289.38C35.7467 289.38 34.7433 289.702 34.006 290.346C33.2593 290.99 32.886 291.848 32.886 292.922C32.886 293.995 33.2593 294.854 34.006 295.498C34.7433 296.142 35.7467 296.464 37.016 296.464C38.2853 296.464 39.2887 296.142 40.026 295.498ZM32.032 285.748L32.032 282.388C32.032 280.876 32.4707 279.682 33.348 278.804C34.2253 277.936 35.448 277.502 37.016 277.502C38.5653 277.502 39.7833 277.936 40.67 278.804C41.5567 279.691 42 280.886 42 282.388L42 285.748L32.032 285.748ZM40.936 284.572L40.936 282.388C40.936 281.212 40.5907 280.312 39.9 279.686C39.2093 279.052 38.248 278.734 37.016 278.734C35.784 278.734 34.8227 279.052 34.132 279.686C33.4413 280.312 33.096 281.212 33.096 282.388L33.096 284.572L40.936 284.572ZM38.304 267.396C39.5453 267.396 40.5067 267.737 41.188 268.418C41.8693 269.099 42.21 270.065 42.21 271.316C42.21 272.567 41.8693 273.533 41.188 274.214C40.5067 274.895 39.5453 275.236 38.304 275.236L32.032 275.236L32.032 274.06L38.304 274.06C40.1987 274.06 41.146 273.145 41.146 271.316C41.146 269.487 40.1987 268.572 38.304 268.572L32.032 268.572L32.032 267.396L38.304 267.396ZM42.224 260.531C42.224 261.884 41.7527 262.99 40.81 263.849C39.8673 264.708 38.6027 265.137 37.016 265.137C35.4293 265.137 34.1647 264.708 33.222 263.849C32.2793 262.99 31.808 261.884 31.808 260.531C31.808 259.458 32.102 258.543 32.69 257.787C33.2687 257.031 34.118 256.532 35.238 256.289L35.238 257.479C33.67 257.899 32.886 258.916 32.886 260.531C32.886 261.548 33.25 262.365 33.978 262.981C34.7153 263.597 35.728 263.905 37.016 263.905C38.304 263.905 39.312 263.597 40.04 262.981C40.7773 262.365 41.146 261.548 41.146 260.531C41.146 259.766 40.908 259.084 40.432 258.487C39.9747 257.899 39.2887 257.54 38.374 257.409L38.374 256.233C39.6153 256.364 40.5627 256.835 41.216 257.647C41.888 258.468 42.224 259.43 42.224 260.531ZM32.032 255.515L32.032 247.521L33.096 247.521L33.096 250.909L42 250.909L42 252.127L33.096 252.127L33.096 255.515L32.032 255.515ZM39.116 234.338L40.726 234.24C41.286 234.194 41.7107 234.072 42 233.876L42 235.094C41.7013 235.3 41.258 235.407 40.67 235.416L39.606 235.458C38.934 235.486 38.458 235.636 38.178 235.906C37.8887 236.177 37.744 236.62 37.744 237.236L37.744 240.484L42 240.484L42 241.66L32.032 241.66L32.032 237.446C32.032 236.42 32.27 235.603 32.746 234.996C33.222 234.38 33.8893 234.072 34.748 234.072C35.3547 234.072 35.868 234.222 36.288 234.52C36.6987 234.81 36.988 235.206 37.156 235.71C37.4173 234.87 38.0707 234.413 39.116 234.338ZM36.68 240.484L36.68 237.306C36.68 236.681 36.5213 236.191 36.204 235.836C35.8773 235.472 35.4153 235.29 34.818 235.29C34.2487 235.29 33.8193 235.482 33.53 235.864C33.2407 236.238 33.096 236.765 33.096 237.446L33.096 240.484L36.68 240.484ZM42 223.341L42 224.587L39.102 225.749L39.102 230.285L42 231.433L42 232.665L32.032 228.689L32.032 227.373L42 223.341ZM37.926 229.823L38.038 229.865L38.038 226.169L37.912 226.225C37.3427 226.458 35.8073 227.065 33.306 228.045C35.0793 228.708 36.6193 229.3 37.926 229.823ZM35.392 214.728L32.032 214.728L32.032 213.566L42 213.566L42 214.994L36.862 218.298C35.35 219.25 34.2253 219.941 33.488 220.37C34.7947 220.342 36.512 220.328 38.64 220.328L42 220.328L42 221.49L32.032 221.49L32.032 220.062L37.17 216.758C38.682 215.806 39.8067 215.116 40.544 214.686C39.2373 214.714 37.52 214.728 35.392 214.728ZM32.032 204.12L32.032 202.566L36.092 206.822L42 202.566L42 204.008L36.876 207.676L38.682 209.566L42 209.566L42 210.742L32.032 210.742L32.032 209.566L37.268 209.566L32.032 204.12ZM42 199.475L42 200.651L32.032 200.651L32.032 199.475L42 199.475ZM35.392 189.894L32.032 189.894L32.032 188.732L42 188.732L42 190.16L36.862 193.464C35.35 194.416 34.2253 195.107 33.488 195.536C34.7947 195.508 36.512 195.494 38.64 195.494L42 195.494L42 196.656L32.032 196.656L32.032 195.228L37.17 191.924C38.682 190.972 39.8067 190.282 40.544 189.852C39.2373 189.88 37.52 189.894 35.392 189.894ZM37.94 181.372L36.876 181.372L36.876 177.13L42 177.13L42 178.096L40.656 178.348C41.7013 179.086 42.224 180.173 42.224 181.61C42.224 183.038 41.7433 184.177 40.782 185.026C39.83 185.894 38.5747 186.328 37.016 186.328C35.4667 186.328 34.2067 185.899 33.236 185.04C32.284 184.191 31.808 183.043 31.808 181.596C31.808 180.411 32.1253 179.431 32.76 178.656C33.3947 177.882 34.2393 177.41 35.294 177.242L35.294 178.46C34.5567 178.582 33.9687 178.936 33.53 179.524C33.1007 180.094 32.886 180.784 32.886 181.596C32.886 182.66 33.2593 183.51 34.006 184.144C34.7527 184.779 35.756 185.096 37.016 185.096C38.276 185.096 39.2793 184.779 40.026 184.144C40.7727 183.51 41.146 182.66 41.146 181.596C41.146 180.654 40.8427 179.851 40.236 179.188C39.6293 178.526 38.864 178.194 37.94 178.194L37.94 181.372Z" fill="#91A9BC"/>
  <path d="M387.887 151.105H392.677C393.891 151.105 394.834 151.427 395.508 152.069C396.191 152.702 396.533 153.564 396.533 154.655C396.533 155.737 396.191 156.599 395.508 157.241C394.834 157.874 393.891 158.19 392.677 158.19H389.953V162H387.887V151.105ZM389.953 156.415H392.585C393.187 156.415 393.646 156.267 393.962 155.971C394.289 155.665 394.452 155.227 394.452 154.655C394.452 154.084 394.289 153.645 393.962 153.339C393.646 153.033 393.187 152.88 392.585 152.88H389.953V156.415ZM397.809 151.105H402.599C403.813 151.105 404.756 151.427 405.429 152.069C406.113 152.702 406.455 153.564 406.455 154.655C406.455 155.737 406.113 156.599 405.429 157.241C404.756 157.874 403.813 158.19 402.599 158.19H399.875V162H397.809V151.105ZM399.875 156.415H402.507C403.109 156.415 403.568 156.267 403.884 155.971C404.21 155.665 404.374 155.227 404.374 154.655C404.374 154.084 404.21 153.645 403.884 153.339C403.568 153.033 403.109 152.88 402.507 152.88H399.875V156.415ZM412.551 162.245C410.98 162.245 409.71 161.73 408.741 160.699C407.762 159.669 407.272 158.287 407.272 156.553C407.272 154.808 407.757 153.421 408.726 152.391C409.685 151.371 410.96 150.861 412.551 150.861C413.826 150.861 414.913 151.202 415.81 151.886C416.708 152.569 417.269 153.559 417.494 154.854H415.397C415.214 154.14 414.872 153.6 414.372 153.232C413.883 152.855 413.276 152.666 412.551 152.666C411.582 152.666 410.817 153.013 410.256 153.707C409.705 154.39 409.43 155.339 409.43 156.553C409.43 157.777 409.705 158.731 410.256 159.414C410.807 160.098 411.572 160.439 412.551 160.439C413.306 160.439 413.954 160.215 414.495 159.766C415.035 159.317 415.362 158.695 415.474 157.899H417.54C417.407 159.287 416.866 160.358 415.918 161.113C414.979 161.867 413.857 162.245 412.551 162.245Z" fill="black"/>
  <path d="M303.584 74.1055V75.9569H297.953V78.5275H303.079V80.3025H297.953V85H295.887V74.1055H303.584ZM309.574 81.5266V77.1045H311.502V85H309.635V83.8524C309.034 84.7399 308.207 85.1836 307.157 85.1836C306.31 85.1836 305.637 84.9388 305.137 84.4492C304.647 83.9493 304.402 83.2454 304.402 82.3376V77.1045H306.33V82.0162C306.33 83.0159 306.825 83.5158 307.815 83.5158C308.304 83.5158 308.717 83.3424 309.054 82.9955C309.401 82.6385 309.574 82.1489 309.574 81.5266ZM317.399 76.9209C318.256 76.9209 318.929 77.1708 319.419 77.6707C319.919 78.1603 320.169 78.8591 320.169 79.7669V85H318.241V80.0883C318.241 79.0886 317.746 78.5887 316.757 78.5887C316.267 78.5887 315.849 78.7673 315.502 79.1243C315.165 79.4711 314.997 79.9557 314.997 80.5779V85H313.069V77.1045H314.936V78.2368C315.538 77.3595 316.359 76.9209 317.399 76.9209ZM326.066 76.9209C326.923 76.9209 327.596 77.1708 328.086 77.6707C328.586 78.1603 328.836 78.8591 328.836 79.7669V85H326.908V80.0883C326.908 79.0886 326.413 78.5887 325.423 78.5887C324.934 78.5887 324.516 78.7673 324.169 79.1243C323.832 79.4711 323.664 79.9557 323.664 80.5779V85H321.736V77.1045H323.603V78.2368C324.204 77.3595 325.026 76.9209 326.066 76.9209ZM337.854 81.19V81.649H331.948C332.019 82.3223 332.229 82.8323 332.575 83.1791C332.932 83.5158 333.407 83.6841 333.998 83.6841C334.876 83.6841 335.478 83.3067 335.804 82.5518H337.655C337.451 83.3577 337.023 84.0003 336.37 84.4798C335.717 84.949 334.922 85.1836 333.983 85.1836C332.81 85.1836 331.861 84.8062 331.137 84.0513C330.413 83.2965 330.051 82.2968 330.051 81.0523C330.051 79.8077 330.408 78.8081 331.122 78.0532C331.846 77.2983 332.79 76.9209 333.953 76.9209C335.146 76.9209 336.095 77.3136 336.799 78.0991C337.502 78.8846 337.854 79.9149 337.854 81.19ZM333.937 78.4204C332.805 78.4204 332.147 79.0478 331.963 80.3025H335.926C335.845 79.721 335.631 79.262 335.284 78.9254C334.937 78.5887 334.488 78.4204 333.937 78.4204ZM341.027 85H339.099V74.1055H341.027V85ZM345.687 85.2142C343.382 85.2142 342.178 84.3063 342.076 82.4906H343.958C344.009 82.9802 344.167 83.3271 344.432 83.5311C344.708 83.7351 345.136 83.8371 345.718 83.8371C346.758 83.8371 347.278 83.5209 347.278 82.8884C347.278 82.6028 347.166 82.3835 346.942 82.2305C346.717 82.0774 346.314 81.9499 345.733 81.8479L344.83 81.6949C343.106 81.4093 342.244 80.6136 342.244 79.3079C342.244 78.5632 342.53 77.9818 343.101 77.5636C343.672 77.1351 344.478 76.9209 345.519 76.9209C347.773 76.9209 348.936 77.8135 349.007 79.5986H347.187C347.166 79.1294 347.018 78.7979 346.743 78.604C346.467 78.4 346.059 78.298 345.519 78.298C344.601 78.298 344.142 78.604 344.142 79.2161C344.142 79.4813 344.244 79.6904 344.448 79.8435C344.652 79.9863 344.988 80.0985 345.458 80.1801L346.452 80.3331C347.411 80.5065 348.105 80.7819 348.533 81.1594C348.972 81.5368 349.191 82.0621 349.191 82.7354C349.191 83.5311 348.885 84.1431 348.273 84.5716C347.661 85 346.799 85.2142 345.687 85.2142Z" fill="black"/>
  <path d="M144 287C200.5 240 286.45 178.119 419 174" stroke="#C6C6C6" stroke-width="3"/>
  <path d="M144 253C171.004 209.567 229.64 123.727 350 95" stroke="#FF6067" stroke-width="3"/>
  <path d="M144 253C171.004 209.567 229.64 123.727 350 95" stroke="#0097E2" stroke-width="3"/>
  <defs>
    <filter id="filter0_d_0_1" x="0.938437" y="0.964821" width="570.141" height="369.141" filterUnits="userSpaceOnUse" color-interpolation-filters="sRGB">
      <feFlood flood-opacity="0" result="BackgroundImageFix"/>
      <feColorMatrix in="SourceAlpha" type="matrix" values="0 0 0 0 0 0 0 0 0 0 0 0 0 0 0 0 0 0 127 0" result="hardAlpha"/>
      <feOffset dx="1.00879" dy="4.03518"/>
      <feGaussianBlur stdDeviation="4.03518"/>
      <feColorMatrix type="matrix" values="0 0 0 0 0 0 0 0 0 0 0 0 0 0 0 0 0 0 0.05 0"/>
      <feBlend mode="normal" in2="BackgroundImageFix" result="effect1_dropShadow_0_1"/>
      <feBlend mode="normal" in="SourceGraphic" in2="effect1_dropShadow_0_1" result="shape"/>
    </filter>
  </defs>
</svg>
